<svg xmlns="http://www.w3.org/2000/svg" xmlns:xlink="http://www.w3.org/1999/xlink" preserveAspectRatio="xMidYMid" width="36" height="36" viewBox="0 0 36 36">
  <defs>
    <style>
      .cls-1 {
        fill: #fff;
        fill-rule: evenodd;
      }
    </style>
  </defs>
  <path d="M35.000,19.066 L30.635,19.066 C30.083,19.066 29.635,18.618 29.635,18.066 L29.635,17.934 C29.635,17.382 30.083,16.934 30.635,16.934 L35.000,16.934 C35.552,16.934 36.000,17.382 36.000,17.934 L36.000,18.066 C36.000,18.618 35.552,19.066 35.000,19.066 ZM27.733,9.764 C27.320,10.178 26.649,10.178 26.236,9.764 C25.822,9.351 25.822,8.680 26.236,8.267 L29.231,5.272 C29.644,4.859 30.314,4.859 30.728,5.272 C31.141,5.685 31.141,6.356 30.728,6.769 L27.733,9.764 ZM18.000,27.000 C13.029,27.000 9.000,22.971 9.000,18.000 C9.000,13.029 13.029,9.000 18.000,9.000 C22.971,9.000 27.000,13.029 27.000,18.000 C27.000,22.971 22.971,27.000 18.000,27.000 ZM18.000,11.000 C14.134,11.000 11.000,14.134 11.000,18.000 C11.000,21.866 14.134,25.000 18.000,25.000 C21.866,25.000 25.000,21.866 25.000,18.000 C25.000,14.134 21.866,11.000 18.000,11.000 ZM18.066,6.365 L17.934,6.365 C17.382,6.365 16.934,5.917 16.934,5.365 L16.934,1.000 C16.934,0.448 17.382,-0.000 17.934,-0.000 L18.066,-0.000 C18.618,-0.000 19.066,0.448 19.066,1.000 L19.066,5.365 C19.066,5.917 18.618,6.365 18.066,6.365 ZM8.267,9.764 L5.272,6.769 C4.859,6.356 4.859,5.685 5.272,5.272 C5.686,4.859 6.356,4.859 6.769,5.272 L9.764,8.267 C10.178,8.680 10.178,9.351 9.764,9.764 C9.351,10.178 8.680,10.178 8.267,9.764 ZM6.365,17.934 L6.365,18.066 C6.365,18.618 5.917,19.066 5.365,19.066 L1.000,19.066 C0.448,19.066 -0.000,18.618 -0.000,18.066 L-0.000,17.934 C-0.000,17.382 0.448,16.934 1.000,16.934 L5.365,16.934 C5.917,16.934 6.365,17.382 6.365,17.934 ZM8.267,26.236 C8.680,25.822 9.351,25.822 9.764,26.236 C10.178,26.649 10.178,27.320 9.764,27.733 L6.769,30.728 C6.356,31.141 5.686,31.141 5.272,30.728 C4.859,30.314 4.859,29.644 5.272,29.231 L8.267,26.236 ZM17.934,29.635 L18.066,29.635 C18.618,29.635 19.066,30.082 19.066,30.635 L19.066,35.000 C19.066,35.552 18.618,36.000 18.066,36.000 L17.934,36.000 C17.382,36.000 16.934,35.552 16.934,35.000 L16.934,30.635 C16.934,30.082 17.382,29.635 17.934,29.635 ZM27.733,26.236 L30.728,29.231 C31.141,29.644 31.141,30.314 30.728,30.728 C30.314,31.141 29.644,31.141 29.231,30.728 L26.236,27.733 C25.822,27.320 25.822,26.649 26.236,26.236 C26.649,25.822 27.320,25.822 27.733,26.236 Z" class="cls-1"/>
</svg>
